grf
version=1
nRows=17
nColumns=37
inDegrees=no
endheader
time	ground_force_1_vx	ground_force_1_vy	ground_force_1_vz	ground_force_1_px	ground_force_1_py	ground_force_1_pz	ground_moment_1_mx	ground_moment_1_my	ground_moment_1_mz	ground_force_2_vx	ground_force_2_vy	ground_force_2_vz	ground_force_2_px	ground_force_2_py	ground_force_2_pz	ground_moment_2_mx	ground_moment_2_my	ground_moment_2_mz	ground_force_3_vx	ground_force_3_vy	ground_force_3_vz	ground_force_3_px	ground_force_3_py	ground_force_3_pz	ground_moment_3_mx	ground_moment_3_my	ground_moment_3_mz	ground_force_4_vx	ground_force_4_vy	ground_force_4_vz	ground_force_4_px	ground_force_4_py	ground_force_4_pz	ground_moment_4_mx	ground_moment_4_my	ground_moment_4_mz
      6.21000000	      0.00000000	     -0.00000000	      0.00000000	      0.00000000	      0.00000000	      0.00000000	      0.00000000	      0.00000000	      0.00000000	      3.24764657	     31.18615150	   -342.50933838	   -277.17052009	  -1111.85973648	      0.00000000	      0.00000000	      0.00000000	   5004.26830464	     10.52095483	    -46.53648850	   -444.64596558	   -278.18605597	   -656.47404793	      0.00000000	      0.00000000	     -0.00000000	  -3359.43931766	      0.00000000	     -0.00000000	      0.00000000	      0.00000000	      0.00000000	      0.00000000	      0.00000000	      0.00000000	      0.00000000
      6.22000000	      0.00000000	     -0.00000000	      0.00000000	      0.00000000	      0.00000000	      0.00000000	      0.00000000	      0.00000000	      0.00000000	      2.17725277	     32.46736908	   -351.91055298	   -278.01960125	  -1112.77706706	      0.00000000	      0.00000000	      0.00000000	   4997.08441564	      9.82041521	    -46.97001734	   -444.57424927	   -279.35614059	   -656.57636425	      0.00000000	      0.00000000	     -0.00000000	  -3267.96195479	      0.00000000	     -0.00000000	      0.00000000	      0.00000000	      0.00000000	      0.00000000	      0.00000000	      0.00000000	      0.00000000
      6.23000000	      0.00000000	     -0.00000000	      0.00000000	      0.00000000	      0.00000000	      0.00000000	      0.00000000	      0.00000000	      0.00000000	      0.82933831	     34.03794479	   -356.64617920	   -277.89327418	  -1112.54165452	      0.00000000	      0.00000000	      0.00000000	   4917.11007027	     10.08660860	    -46.89135830	   -443.52651978	   -279.44545210	   -656.84381983	      0.00000000	      0.00000000	     -0.00000000	  -3432.22022409	      0.00000000	     -0.00000000	      0.00000000	      0.00000000	      0.00000000	      0.00000000	      0.00000000	      0.00000000	      0.00000000
      6.24000000	      0.00000000	     -0.00000000	      0.00000000	      0.00000000	      0.00000000	      0.00000000	      0.00000000	      0.00000000	      0.00000000	     -0.33047599	     35.00804520	   -363.23773193	   -276.63662868	  -1112.71263796	      0.00000000	      0.00000000	      0.00000000	   4871.87264551	      9.98828297	    -45.82238094	   -444.53552246	   -279.82935080	   -657.04558651	      0.00000000	      0.00000000	     -0.00000000	  -3482.94950126	      0.00000000	     -0.00000000	      0.00000000	      0.00000000	      0.00000000	      0.00000000	      0.00000000	      0.00000000	      0.00000000
      6.25000000	      0.00000000	     -0.00000000	      0.00000000	      0.00000000	      0.00000000	      0.00000000	      0.00000000	      0.00000000	      0.00000000	     -0.82920521	     36.16640472	   -367.68310547	   -275.71869617	  -1111.55420941	      0.00000000	      0.00000000	      0.00000000	   5000.63782083	     10.60258005	    -43.82391450	   -444.14669800	   -280.29806242	   -657.92978830	      0.00000000	      0.00000000	     -0.00000000	  -3489.36687192	      0.00000000	     -0.00000000	      0.00000000	      0.00000000	      0.00000000	      0.00000000	      0.00000000	      0.00000000	      0.00000000
      6.26000000	      0.00000000	     -0.00000000	      0.00000000	      0.00000000	      0.00000000	      0.00000000	      0.00000000	      0.00000000	      0.00000000	     -1.59000182	     38.17403793	   -376.98831177	   -275.84624946	  -1114.19970003	      0.00000000	      0.00000000	      0.00000000	   4806.51316782	     11.59488590	    -42.78380686	   -444.81915283	   -280.97953810	   -657.70679745	      0.00000000	      0.00000000	     -0.00000000	  -3623.11328220	      0.00000000	     -0.00000000	      0.00000000	      0.00000000	      0.00000000	      0.00000000	      0.00000000	      0.00000000	      0.00000000
      6.27000000	      0.00000000	     -0.00000000	      0.00000000	      0.00000000	      0.00000000	      0.00000000	      0.00000000	      0.00000000	      0.00000000	     -2.36590338	     39.72601318	   -381.64154053	   -274.66114318	  -1113.99766169	      0.00000000	      0.00000000	      0.00000000	   4857.37161508	     12.40363232	    -41.89051164	   -442.02593994	   -280.91550343	   -658.36659100	      0.00000000	      0.00000000	     -0.00000000	  -3620.72416425	      0.00000000	     -0.00000000	      0.00000000	      0.00000000	      0.00000000	      0.00000000	      0.00000000	      0.00000000	      0.00000000
      6.28000000	      0.00000000	     -0.00000000	      0.00000000	      0.00000000	      0.00000000	      0.00000000	      0.00000000	      0.00000000	      0.00000000	     -2.97005749	     41.19346619	   -383.86352539	   -275.12246542	  -1112.94176066	      0.00000000	      0.00000000	      0.00000000	   4789.03158167	     13.01439596	    -40.84100456	   -440.42401123	   -281.36086225	   -658.39043016	      0.00000000	      0.00000000	     -0.00000000	  -3457.82664991	      0.00000000	     -0.00000000	      0.00000000	      0.00000000	      0.00000000	      0.00000000	      0.00000000	      0.00000000	      0.00000000
      6.29000000	      0.00000000	     -0.00000000	      0.00000000	      0.00000000	      0.00000000	      0.00000000	      0.00000000	      0.00000000	      0.00000000	     -2.91790891	     41.15607071	   -388.10083008	   -275.31457336	  -1112.92154680	      0.00000000	      0.00000000	      0.00000000	   4773.75886995	     14.62660442	    -39.72948965	   -437.58938599	   -281.96817228	   -659.43635432	      0.00000000	      0.00000000	     -0.00000000	  -3596.09436587	      0.00000000	     -0.00000000	      0.00000000	      0.00000000	      0.00000000	      0.00000000	      0.00000000	      0.00000000	      0.00000000
      6.30000000	      0.00000000	     -0.00000000	      0.00000000	      0.00000000	      0.00000000	      0.00000000	      0.00000000	      0.00000000	      0.00000000	     -2.94394684	     41.76154709	   -390.82266235	   -274.81943426	  -1113.23657201	      0.00000000	      0.00000000	      0.00000000	   4886.93135882	     16.19725462	    -38.61822270	   -434.24249268	   -282.14382821	   -659.58769587	      0.00000000	      0.00000000	      0.00000000	  -3630.31484495	      0.00000000	     -0.00000000	      0.00000000	      0.00000000	      0.00000000	      0.00000000	      0.00000000	      0.00000000	      0.00000000
      6.31000000	      0.00000000	     -0.00000000	      0.00000000	      0.00000000	      0.00000000	      0.00000000	      0.00000000	      0.00000000	      0.00000000	     -3.81014132	     42.59286499	   -393.44244385	   -274.93665827	  -1114.60054799	      0.00000000	      0.00000000	      0.00000000	   4730.66602700	     16.10463766	    -37.76114032	   -430.76611328	   -282.55383952	   -660.19889997	      0.00000000	      0.00000000	      0.00000000	  -3534.11322905	      0.00000000	     -0.00000000	      0.00000000	      0.00000000	      0.00000000	      0.00000000	      0.00000000	      0.00000000	      0.00000000
      6.32000000	      0.00000000	     -0.00000000	      0.00000000	      0.00000000	      0.00000000	      0.00000000	      0.00000000	      0.00000000	      0.00000000	     -3.36416626	     42.94915390	   -392.68972778	   -273.99177675	  -1113.77330986	      0.00000000	      0.00000000	      0.00000000	   4858.52818447	     15.85341801	    -36.66473527	   -430.05322266	   -282.61420010	   -659.46446415	      0.00000000	      0.00000000	     -0.00000000	  -3375.99600725	      0.00000000	     -0.00000000	      0.00000000	      0.00000000	      0.00000000	      0.00000000	      0.00000000	      0.00000000	      0.00000000
      6.33000000	      0.00000000	     -0.00000000	      0.00000000	      0.00000000	      0.00000000	      0.00000000	      0.00000000	      0.00000000	      0.00000000	     -3.50498772	     43.22824860	   -394.16482544	   -274.50829216	  -1113.12834182	      0.00000000	      0.00000000	      0.00000000	   4721.92587634	     15.03215193	    -35.54237116	   -429.15246582	   -282.22072899	   -660.14474030	      0.00000000	      0.00000000	     -0.00000000	  -3088.96382756	      0.00000000	     -0.00000000	      0.00000000	      0.00000000	      0.00000000	      0.00000000	      0.00000000	      0.00000000	      0.00000000
      6.34000000	      0.00000000	     -0.00000000	      0.00000000	      0.00000000	      0.00000000	      0.00000000	      0.00000000	      0.00000000	      0.00000000	     -3.36428261	     43.16481018	   -395.91473389	   -273.96223114	  -1113.79798300	      0.00000000	      0.00000000	      0.00000000	   4814.27950203	     14.58588868	    -34.77559026	   -427.85763550	   -281.70307758	   -660.59509509	      0.00000000	     -0.00000000	     -0.00000000	  -3052.94602325	      0.00000000	     -0.00000000	      0.00000000	      0.00000000	      0.00000000	      0.00000000	      0.00000000	      0.00000000	      0.00000000
      6.35000000	      0.00000000	     -0.00000000	      0.00000000	      0.00000000	      0.00000000	      0.00000000	      0.00000000	      0.00000000	      0.00000000	     -3.45357084	     42.71802902	   -397.37609863	   -273.11634025	  -1115.29290159	      0.00000000	      0.00000000	      0.00000000	   4769.46789573	     13.28099802	    -35.08921930	   -427.01989746	   -280.67058483	   -660.34348240	      0.00000000	      0.00000000	     -0.00000000	  -2975.04165147	      0.00000000	     -0.00000000	      0.00000000	      0.00000000	      0.00000000	      0.00000000	      0.00000000	      0.00000000	      0.00000000
      6.36000000	      0.00000000	     -0.00000000	      0.00000000	      0.00000000	      0.00000000	      0.00000000	      0.00000000	      0.00000000	      0.00000000	     -3.92463565	     42.19732666	   -398.23385620	   -272.77741480	  -1114.71476261	      0.00000000	      0.00000000	      0.00000000	   4463.54679998	     12.21652960	    -35.59364426	   -426.71069336	   -279.66171554	   -659.80799088	      0.00000000	      0.00000000	     -0.00000000	  -2784.78657519	      0.00000000	     -0.00000000	      0.00000000	      0.00000000	      0.00000000	      0.00000000	      0.00000000	      0.00000000	      0.00000000
      6.37000000	      0.00000000	     -0.00000000	      0.00000000	      0.00000000	      0.00000000	      0.00000000	      0.00000000	      0.00000000	      0.00000000	     -4.56254721	     42.90988922	   -398.94210815	   -272.30590211	  -1114.32942188	      0.00000000	      0.00000000	      0.00000000	   4572.78860310	     11.45691176	    -35.92155938	   -423.81805420	   -278.89791318	   -659.16357097	      0.00000000	      0.00000000	     -0.00000000	  -2825.88630918	      0.00000000	     -0.00000000	      0.00000000	      0.00000000	      0.00000000	      0.00000000	      0.00000000	      0.00000000	      0.00000000
